<?xml version="1.0" encoding="UTF-8" standalone="no"?>
<svg
   xmlns:dc="http://purl.org/dc/elements/1.1/"
   xmlns:cc="http://creativecommons.org/ns#"
   xmlns:rdf="http://www.w3.org/1999/02/22-rdf-syntax-ns#"
   xmlns:svg="http://www.w3.org/2000/svg"
   xmlns="http://www.w3.org/2000/svg"
   xmlns:sodipodi="http://sodipodi.sourceforge.net/DTD/sodipodi-0.dtd"
   xmlns:inkscape="http://www.inkscape.org/namespaces/inkscape"
   width="210mm"
   height="297mm"
   viewBox="0 0 210 297"
   version="1.1"
   id="svg8"
   inkscape:version="1.0.2-2 (e86c870879, 2021-01-15)"
   sodipodi:docname="rlasso.svg">
  <defs
     id="defs2">
    <filter
       inkscape:collect="always"
       style="color-interpolation-filters:sRGB"
       id="filter1988"
       x="-6.883337e-06"
       width="1.0000138"
       y="-2.505838e-05"
       height="1.0000501">
      <feGaussianBlur
         inkscape:collect="always"
         stdDeviation="1.6726469e-05"
         id="feGaussianBlur1990" />
    </filter>
  </defs>
  <sodipodi:namedview
     id="base"
     pagecolor="#ffffff"
     bordercolor="#666666"
     borderopacity="1.0"
     inkscape:pageopacity="0.0"
     inkscape:pageshadow="2"
     inkscape:zoom="1.4"
     inkscape:cx="197.11262"
     inkscape:cy="593.91964"
     inkscape:document-units="mm"
     inkscape:current-layer="text1978"
     inkscape:document-rotation="0"
     showgrid="false"
     inkscape:window-width="1920"
     inkscape:window-height="1027"
     inkscape:window-x="-8"
     inkscape:window-y="-8"
     inkscape:window-maximized="1" />
  <metadata
     id="metadata5">
    <rdf:RDF>
      <cc:Work
         rdf:about="">
        <dc:format>image/svg+xml</dc:format>
        <dc:type
           rdf:resource="http://purl.org/dc/dcmitype/StillImage" />
        <dc:title></dc:title>
      </cc:Work>
    </rdf:RDF>
  </metadata>
  <g
     inkscape:label="Layer 1"
     inkscape:groupmode="layer"
     id="layer1">
    <g
       aria-label="Rlasso"
       id="text1978"
       style="font-style:normal;font-variant:normal;font-weight:bold;font-stretch:normal;font-size:2px;line-height:1.25;font-family:'Josefin Sans';-inkscape-font-specification:'Josefin Sans, Bold';font-variant-ligatures:normal;font-variant-caps:normal;font-variant-numeric:normal;font-variant-east-asian:normal;fill:#0c151a;fill-opacity:1;stroke:none;stroke-width:0.0104167;filter:url(#filter1988)"
       transform="matrix(25.4,0,0,25.4,-38.18556,14.09658)">
      <path
         id="path884"
         style="color:#000000;font-style:normal;font-variant:normal;font-weight:normal;font-stretch:normal;font-size:medium;line-height:1.25;font-family:'Josefin Sans';-inkscape-font-specification:'Josefin Sans, Bold';font-variant-ligatures:normal;font-variant-position:normal;font-variant-caps:normal;font-variant-numeric:normal;font-variant-alternates:normal;font-variant-east-asian:normal;font-feature-settings:normal;font-variation-settings:normal;text-indent:0;text-align:start;text-decoration:none;text-decoration-line:none;text-decoration-style:solid;text-decoration-color:#000000;letter-spacing:normal;word-spacing:normal;text-transform:none;writing-mode:lr-tb;direction:ltr;text-orientation:mixed;dominant-baseline:auto;baseline-shift:baseline;text-anchor:start;white-space:normal;shape-padding:0;shape-margin:0;inline-size:0;clip-rule:nonzero;display:inline;overflow:visible;visibility:visible;opacity:1;isolation:auto;mix-blend-mode:normal;color-interpolation:sRGB;color-interpolation-filters:linearRGB;solid-color:#000000;solid-opacity:1;vector-effect:none;fill:#0385cd;fill-opacity:1;fill-rule:nonzero;stroke:none;stroke-width:1;stroke-linecap:butt;stroke-linejoin:miter;stroke-miterlimit:4;stroke-dasharray:none;stroke-dashoffset:0;stroke-opacity:1;color-rendering:auto;image-rendering:auto;shape-rendering:auto;text-rendering:auto;enable-background:accumulate;stop-color:#000000;stop-opacity:1"
         d="M 259.92578 462.7793 L 259.92578 571.3418 C 259.92578 595.64773 273.07515 616.45064 290.67578 630.4043 C 308.27641 644.35794 330.78887 652.5293 353.30078 652.5293 C 400.63355 652.5293 432.87924 630.37385 452.14453 603.40625 C 446.72936 602.8058 441.52227 601.47652 436.55078 599.4668 C 431.82109 597.51324 427.48408 594.93735 423.64062 591.81836 C 409.3327 609.72726 388.26199 622.5293 353.30078 622.5293 C 338.31268 622.5293 321.5573 616.58459 309.42578 606.9668 C 297.29426 597.34902 289.92578 584.89301 289.92578 571.3418 L 289.92578 462.7793 L 259.92578 462.7793 z M 435.63477 579.92188 L 435.05078 580.7168 C 437.34431 582.3896 439.29603 584.40234 442.17578 585.5918 C 444.42617 586.50151 446.73868 587.21658 449.13281 587.74609 L 435.63477 579.92188 z "
         transform="matrix(0.01041667,0,0,0.01041667,1.5033685,-0.55498346)" />
      <path
         d="m 3.4038585,4.1653293 q 0.138,0 0.246,0.036 0.108,0.034 0.18,0.1 0.074,0.064 0.112,0.156 0.038,0.09 0.038,0.204 0,0.09 -0.028,0.18 -0.026,0.09 -0.088,0.164 -0.06,0.074 -0.16,0.12 -0.1,0.044 -0.248,0.044 h -0.208 v 0.468 h -0.29 v -1.472 z m 0.05,0.724 q 0.066,0 0.11,-0.022 0.044,-0.022 0.068,-0.056 0.026,-0.034 0.036,-0.07 0.012,-0.038 0.012,-0.07 0,-0.024 -0.008,-0.06 -0.006,-0.038 -0.028,-0.076 -0.022,-0.038 -0.068,-0.064 -0.044,-0.026 -0.12,-0.026 h -0.208 v 0.444 z m 0.272,0.18 0.364,0.568 h -0.338 l -0.372,-0.56 z"
         style="font-style:normal;font-variant:normal;font-weight:bold;font-stretch:normal;font-size:2px;font-family:'Josefin Sans';-inkscape-font-specification:'Josefin Sans, Bold';font-variant-ligatures:normal;font-variant-caps:normal;font-variant-numeric:normal;font-variant-east-asian:normal;fill:#0c151a;fill-opacity:1;stroke-width:0.0104167"
         id="path2005" />
      <path
         d="m 5.1251515,5.6613293 q -0.122,0 -0.222,-0.048 -0.098,-0.05 -0.156,-0.152 -0.058,-0.102 -0.058,-0.26 0,-0.148 0.06,-0.256 0.06,-0.108 0.158,-0.166 0.098,-0.06 0.208,-0.06 0.13,0 0.196,0.044 0.068,0.042 0.112,0.094 l -0.012,0.034 0.026,-0.128 h 0.26 v 0.874 h -0.28 v -0.19 l 0.022,0.06 q -0.004,0 -0.024,0.024 -0.02,0.022 -0.06,0.054 -0.038,0.03 -0.096,0.052 -0.056,0.024 -0.134,0.024 z m 0.08,-0.228 q 0.05,0 0.09,-0.014 0.04,-0.016 0.07,-0.044 0.03,-0.03 0.052,-0.074 v -0.214 q -0.016,-0.044 -0.048,-0.074 -0.032,-0.032 -0.076,-0.048 -0.044,-0.018 -0.098,-0.018 -0.06,0 -0.112,0.032 -0.05,0.03 -0.08,0.084 -0.03,0.054 -0.03,0.124 0,0.07 0.032,0.126 0.032,0.056 0.084,0.088 0.054,0.032 0.116,0.032 z"
         style="font-style:normal;font-variant:normal;font-weight:bold;font-stretch:normal;font-size:2px;font-family:'Josefin Sans';-inkscape-font-specification:'Josefin Sans, Bold';font-variant-ligatures:normal;font-variant-caps:normal;font-variant-numeric:normal;font-variant-east-asian:normal;fill:#0c151a;fill-opacity:1;stroke-width:0.0104167"
         id="path2009" />
      <path
         d="m 6.2820049,5.6553293 q -0.108,0 -0.202,-0.038 -0.092,-0.038 -0.156,-0.106 l 0.116,-0.154 q 0.064,0.058 0.118,0.084 0.056,0.024 0.1,0.024 0.034,0 0.06,-0.006 0.028,-0.008 0.044,-0.022 0.016,-0.016 0.016,-0.04 0,-0.034 -0.028,-0.054 -0.026,-0.02 -0.068,-0.032 -0.042,-0.014 -0.09,-0.028 -0.12,-0.038 -0.174,-0.11 -0.052,-0.074 -0.052,-0.16 0,-0.066 0.034,-0.132 0.036,-0.068 0.112,-0.112 0.078,-0.046 0.2,-0.046 0.11,0 0.186,0.022 0.076,0.022 0.144,0.072 l -0.106,0.164 q -0.038,-0.03 -0.086,-0.05 -0.046,-0.022 -0.086,-0.024 -0.036,-0.002 -0.062,0.008 -0.024,0.01 -0.038,0.026 -0.014,0.016 -0.014,0.034 -0.002,0.038 0.028,0.06 0.032,0.022 0.08,0.034 0.048,0.012 0.094,0.028 0.064,0.02 0.11,0.054 0.046,0.034 0.07,0.082 0.026,0.046 0.026,0.112 0,0.08 -0.042,0.152 -0.04,0.07 -0.124,0.114 -0.082,0.044 -0.21,0.044 z"
         style="font-style:normal;font-variant:normal;font-weight:bold;font-stretch:normal;font-size:2px;font-family:'Josefin Sans';-inkscape-font-specification:'Josefin Sans, Bold';font-variant-ligatures:normal;font-variant-caps:normal;font-variant-numeric:normal;font-variant-east-asian:normal;fill:#0c151a;fill-opacity:1;stroke-width:0.0104167"
         id="path2011" />
      <path
         d="m 7.1760021,5.6553293 q -0.108,0 -0.202,-0.038 -0.092,-0.038 -0.156,-0.106 l 0.116,-0.154 q 0.064,0.058 0.118,0.084 0.056,0.024 0.1,0.024 0.034,0 0.06,-0.006 0.028,-0.008 0.044,-0.022 0.016,-0.016 0.016,-0.04 0,-0.034 -0.028,-0.054 -0.026,-0.02 -0.068,-0.032 -0.042,-0.014 -0.09,-0.028 -0.12,-0.038 -0.174,-0.11 -0.052,-0.074 -0.052,-0.16 0,-0.066 0.034,-0.132 0.036,-0.068 0.112,-0.112 0.078,-0.046 0.2,-0.046 0.11,0 0.186,0.022 0.076,0.022 0.144,0.072 l -0.106,0.164 q -0.038,-0.03 -0.086,-0.05 -0.046,-0.022 -0.086,-0.024 -0.036,-0.002 -0.062,0.008 -0.024,0.01 -0.038,0.026 -0.014,0.016 -0.014,0.034 -0.002,0.038 0.028,0.06 0.032,0.022 0.08,0.034 0.048,0.012 0.094,0.028 0.064,0.02 0.11,0.054 0.046,0.034 0.07,0.082 0.026,0.046 0.026,0.112 0,0.08 -0.042,0.152 -0.04,0.07 -0.124,0.114 -0.082,0.044 -0.21,0.044 z"
         style="font-style:normal;font-variant:normal;font-weight:bold;font-stretch:normal;font-size:2px;font-family:'Josefin Sans';-inkscape-font-specification:'Josefin Sans, Bold';font-variant-ligatures:normal;font-variant-caps:normal;font-variant-numeric:normal;font-variant-east-asian:normal;fill:#0c151a;fill-opacity:1;stroke-width:0.0104167"
         id="path2013" />
      <path
         d="m 7.7179993,5.1893293 q 0,-0.134 0.062,-0.24 0.064,-0.106 0.178,-0.166 0.114,-0.062 0.262,-0.062 0.15,0 0.26,0.062 0.11,0.06 0.168,0.166 0.06,0.106 0.06,0.24 0,0.134 -0.06,0.242 -0.058,0.106 -0.168,0.168 -0.11,0.062 -0.264,0.062 -0.144,0 -0.258,-0.056 -0.112,-0.056 -0.176,-0.162 -0.064,-0.106 -0.064,-0.254 z m 0.282,0.002 q 0,0.068 0.028,0.124 0.028,0.054 0.076,0.086 0.048,0.032 0.108,0.032 0.066,0 0.114,-0.032 0.048,-0.032 0.074,-0.086 0.026,-0.056 0.026,-0.124 0,-0.07 -0.026,-0.124 -0.026,-0.054 -0.074,-0.086 -0.048,-0.032 -0.114,-0.032 -0.06,0 -0.108,0.032 -0.048,0.032 -0.076,0.086 -0.028,0.054 -0.028,0.124 z"
         style="font-style:normal;font-variant:normal;font-weight:bold;font-stretch:normal;font-size:2px;font-family:'Josefin Sans';-inkscape-font-specification:'Josefin Sans, Bold';font-variant-ligatures:normal;font-variant-caps:normal;font-variant-numeric:normal;font-variant-east-asian:normal;fill:#0385cd;fill-opacity:1;stroke:none;stroke-width:0.0104167"
         id="path2015" />
      <path
         id="path2018"
         style="color:#000000;font-style:normal;font-variant:normal;font-weight:normal;font-stretch:normal;font-size:medium;line-height:1.25;font-family:'Josefin Sans';-inkscape-font-specification:'Josefin Sans, Bold';font-variant-ligatures:normal;font-variant-position:normal;font-variant-caps:normal;font-variant-numeric:normal;font-variant-alternates:normal;font-variant-east-asian:normal;font-feature-settings:normal;font-variation-settings:normal;text-indent:0;text-align:start;text-decoration:none;text-decoration-line:none;text-decoration-style:solid;text-decoration-color:#000000;letter-spacing:normal;word-spacing:normal;text-transform:none;writing-mode:lr-tb;direction:ltr;text-orientation:mixed;dominant-baseline:auto;baseline-shift:baseline;text-anchor:start;white-space:normal;shape-padding:0;shape-margin:0;inline-size:0;clip-rule:nonzero;display:inline;overflow:visible;visibility:visible;opacity:1;isolation:auto;mix-blend-mode:normal;color-interpolation:sRGB;color-interpolation-filters:linearRGB;solid-color:#000000;solid-opacity:1;vector-effect:none;fill:#0385cd;fill-opacity:1;fill-rule:nonzero;stroke:none;stroke-width:1;stroke-linecap:butt;stroke-linejoin:miter;stroke-miterlimit:4;stroke-dasharray:none;stroke-dashoffset:0;stroke-opacity:1;color-rendering:auto;image-rendering:auto;shape-rendering:auto;text-rendering:auto;enable-background:accumulate;stop-color:#000000;stop-opacity:1"
         d="m 773.55273,451.36523 c -14.81904,0.0645 -21.27997,1.17766 -38.27538,5.16177 -2.95368,0.66287 -4.69075,3.96435 -5.15235,4.723 -0.4616,0.75865 -9.17268,14.43518 -10.14523,15.76759 -0.97254,1.33241 0.0212,2.40301 1.50385,1.81295 10.31834,-4.05927 18.37194,-5.85047 26.83083,-5.45554 19.97181,0.93216 25.8584,-1.82499 42.70117,1.94531 l 25.51954,-14.71289 c -10.76756,-6.12723 -24.48714,-8.97151 -40.03907,-9.22461 -0.97384,-0.0159 -1.95542,-0.0219 -2.94336,-0.0176 z m -119.88671,31.01172 c -4.56612,2.02568 -9.08973,4.10614 -13.54102,6.24805 -1.99064,0.95787 -3.92456,1.92602 -5.83203,2.89844 2.88005,2.43261 5.11333,5.41425 6.76953,8.72656 2.04854,3.76767 3.1875,8.18694 3.1875,12.9375 0,1.66956 -0.15183,3.31856 -0.41797,4.94727 2.67934,-1.41118 5.41856,-2.81414 8.29297,-4.19727 3.97467,-1.91257 8.04921,-3.9981 12.18555,-6.18359 0.88672,-0.47461 0.59878,-0.38705 0.88672,-0.47461 0.54824,-0.29086 1.10206,-0.59083 1.65234,-0.88477 -2.84884,-1.89316 -5.27363,-4.10572 -7.22461,-6.70703 L 659.4375,499.5 c -3.64062,-5.18084 -5.56839,-11.0025 -5.77148,-17.12305 z"
         transform="scale(0.01041667)"
         sodipodi:nodetypes="sczzccccssscsccscscccccc" />
      <g
         id="path2144"
         style="opacity:1">
        <path
           style="color:#000000;font-style:normal;font-variant:normal;font-weight:bold;font-stretch:normal;font-size:2px;line-height:1.25;font-family:'Josefin Sans';-inkscape-font-specification:'Josefin Sans, Bold';font-variant-ligatures:normal;font-variant-position:normal;font-variant-caps:normal;font-variant-numeric:normal;font-variant-alternates:normal;font-variant-east-asian:normal;font-feature-settings:normal;font-variation-settings:normal;text-indent:0;text-align:start;text-decoration:none;text-decoration-line:none;text-decoration-style:solid;text-decoration-color:#000000;letter-spacing:normal;word-spacing:normal;text-transform:none;writing-mode:lr-tb;direction:ltr;text-orientation:mixed;dominant-baseline:auto;baseline-shift:baseline;text-anchor:start;white-space:normal;shape-padding:0;shape-margin:0;inline-size:0;clip-rule:nonzero;display:inline;overflow:visible;visibility:visible;isolation:auto;mix-blend-mode:normal;color-interpolation:sRGB;color-interpolation-filters:linearRGB;solid-color:#000000;solid-opacity:1;vector-effect:none;fill:#0c151a;fill-opacity:1;fill-rule:nonzero;stroke:none;stroke-width:0.104167;stroke-linecap:butt;stroke-linejoin:miter;stroke-miterlimit:4;stroke-dasharray:none;stroke-dashoffset:0;stroke-opacity:1;paint-order:markers stroke fill;color-rendering:auto;image-rendering:auto;shape-rendering:auto;text-rendering:auto;enable-background:accumulate;stop-color:#000000;stop-opacity:1"
           d="m 6.2820049,5.6553293 c -0.072,0 -0.1393333,-0.012667 -0.202,-0.038 -0.061333,-0.025333 -0.1133333,-0.060667 -0.156,-0.106 l 0.116,-0.154 c 0.042667,0.038667 0.082,0.066667 0.118,0.084 0.037333,0.016 0.070667,0.024 0.1,0.024 0.022667,0 0.042667,-0.002 0.06,-0.006 0.018667,-0.00533 0.033333,-0.012667 0.044,-0.022 0.010667,-0.010667 0.016,-0.024 0.016,-0.04 0,-0.022667 -0.00933,-0.040667 -0.028,-0.054 -0.017333,-0.013333 -0.04,-0.024 -0.068,-0.032 -0.028,-0.00933 -0.058,-0.018667 -0.09,-0.028 -0.08,-0.025333 -0.138,-0.062 -0.174,-0.11 -0.034667,-0.049333 -0.052,-0.1026667 -0.052,-0.16 0,-0.044 0.011333,-0.088 0.034,-0.132 0.024,-0.045333 0.061333,-0.082667 0.112,-0.112 0.052,-0.030667 0.1186667,-0.046 0.2,-0.046 0.073333,0 0.1353333,0.00733 0.186,0.022 0.050667,0.014667 0.098667,0.038667 0.144,0.072 l -0.106,0.164 c -0.025333,-0.02 -0.054,-0.036667 -0.086,-0.05 -0.030667,-0.014667 -0.059333,-0.022667 -0.086,-0.024 -0.024,-0.00133 -0.044667,0.00133 -0.062,0.008 -0.016,0.00667 -0.028667,0.015333 -0.038,0.026 -0.00933,0.010667 -0.014,0.022 -0.014,0.034 -0.00133,0.025333 0.008,0.045333 0.028,0.06 0.021333,0.014667 0.048,0.026 0.08,0.034 0.032,0.008 0.063333,0.017333 0.094,0.028 0.042667,0.013333 0.079333,0.031333 0.11,0.054 0.030667,0.022667 0.054,0.05 0.07,0.082 0.017333,0.030667 0.026,0.068 0.026,0.112 0,0.053333 -0.014,0.104 -0.042,0.152 -0.026667,0.046667 -0.068,0.084667 -0.124,0.114 -0.054667,0.029333 -0.1246667,0.044 -0.21,0.044 z"
           id="path2161" />
      </g>
      <g
         id="path2146"
         style="opacity:1">
        <path
           style="color:#000000;font-style:normal;font-variant:normal;font-weight:bold;font-stretch:normal;font-size:2px;line-height:1.25;font-family:'Josefin Sans';-inkscape-font-specification:'Josefin Sans, Bold';font-variant-ligatures:normal;font-variant-position:normal;font-variant-caps:normal;font-variant-numeric:normal;font-variant-alternates:normal;font-variant-east-asian:normal;font-feature-settings:normal;font-variation-settings:normal;text-indent:0;text-align:start;text-decoration:none;text-decoration-line:none;text-decoration-style:solid;text-decoration-color:#000000;letter-spacing:normal;word-spacing:normal;text-transform:none;writing-mode:lr-tb;direction:ltr;text-orientation:mixed;dominant-baseline:auto;baseline-shift:baseline;text-anchor:start;white-space:normal;shape-padding:0;shape-margin:0;inline-size:0;clip-rule:nonzero;display:inline;overflow:visible;visibility:visible;isolation:auto;mix-blend-mode:normal;color-interpolation:sRGB;color-interpolation-filters:linearRGB;solid-color:#000000;solid-opacity:1;vector-effect:none;fill:#0c151a;fill-opacity:1;fill-rule:nonzero;stroke:none;stroke-width:0.104167;stroke-linecap:butt;stroke-linejoin:miter;stroke-miterlimit:4;stroke-dasharray:none;stroke-dashoffset:0;stroke-opacity:1;paint-order:markers stroke fill;color-rendering:auto;image-rendering:auto;shape-rendering:auto;text-rendering:auto;enable-background:accumulate;stop-color:#000000;stop-opacity:1"
           d="m 7.1760021,5.6553293 c -0.072,0 -0.1393333,-0.012667 -0.202,-0.038 -0.061333,-0.025333 -0.1133333,-0.060667 -0.156,-0.106 l 0.116,-0.154 c 0.042667,0.038667 0.082,0.066667 0.118,0.084 0.037333,0.016 0.070667,0.024 0.1,0.024 0.022667,0 0.042667,-0.002 0.06,-0.006 0.018667,-0.00533 0.033333,-0.012667 0.044,-0.022 0.010667,-0.010667 0.016,-0.024 0.016,-0.04 0,-0.022667 -0.00933,-0.040667 -0.028,-0.054 -0.017333,-0.013333 -0.04,-0.024 -0.068,-0.032 -0.028,-0.00933 -0.058,-0.018667 -0.09,-0.028 -0.08,-0.025333 -0.138,-0.062 -0.174,-0.11 -0.034667,-0.049333 -0.052,-0.1026667 -0.052,-0.16 0,-0.044 0.011333,-0.088 0.034,-0.132 0.024,-0.045333 0.061333,-0.082667 0.112,-0.112 0.052,-0.030667 0.1186667,-0.046 0.2,-0.046 0.073333,0 0.1353333,0.00733 0.186,0.022 0.050667,0.014667 0.098667,0.038667 0.144,0.072 l -0.106,0.164 c -0.025333,-0.02 -0.054,-0.036667 -0.086,-0.05 -0.030667,-0.014667 -0.059333,-0.022667 -0.086,-0.024 -0.024,-0.00133 -0.044667,0.00133 -0.062,0.008 -0.016,0.00667 -0.028667,0.015333 -0.038,0.026 -0.00933,0.010667 -0.014,0.022 -0.014,0.034 -0.00133,0.025333 0.008,0.045333 0.028,0.06 0.021333,0.014667 0.048,0.026 0.08,0.034 0.032,0.008 0.063333,0.017333 0.094,0.028 0.042667,0.013333 0.079333,0.031333 0.11,0.054 0.030667,0.022667 0.054,0.05 0.07,0.082 0.017333,0.030667 0.026,0.068 0.026,0.112 0,0.053333 -0.014,0.104 -0.042,0.152 -0.026667,0.046667 -0.068,0.084667 -0.124,0.114 -0.054667,0.029333 -0.1246667,0.044 -0.21,0.044 z"
           id="path2154" />
      </g>
      <text
         xml:space="preserve"
         style="font-style:normal;font-variant:normal;font-weight:bold;font-stretch:normal;font-size:0.555556px;line-height:1.25;font-family:Consolas;-inkscape-font-specification:'Consolas, Bold';font-variant-ligatures:normal;font-variant-caps:normal;font-variant-numeric:normal;font-variant-east-asian:normal;fill:#0c151a;fill-opacity:1;stroke:none;stroke-width:0.00010851"
         x="6.6001425"
         y="6.2754049"
         id="text2166"><tspan
           sodipodi:role="line"
           id="tspan2168"
           x="6.6001425"
           y="6.2754049"
           style="font-style:normal;font-variant:normal;font-weight:bold;font-stretch:normal;font-size:0.555556px;font-family:Consolas;-inkscape-font-specification:'Consolas, Bold';font-variant-ligatures:normal;font-variant-caps:normal;font-variant-numeric:normal;font-variant-east-asian:normal;fill:#0c151a;fill-opacity:1">Models</tspan></text>
      <g
         id="g892"
         style="opacity:1;stroke-width:0.15625;stroke-miterlimit:4;stroke-dasharray:none;stroke:#ffffff;stroke-opacity:0.98000002">
        <g
           id="path890"
           style="opacity:1">
          <path
             style="color:#000000;font-style:normal;font-variant:normal;font-weight:bold;font-stretch:normal;font-size:2px;line-height:1.25;font-family:'Josefin Sans';-inkscape-font-specification:'Josefin Sans, Bold';font-variant-ligatures:normal;font-variant-position:normal;font-variant-caps:normal;font-variant-numeric:normal;font-variant-alternates:normal;font-variant-east-asian:normal;font-feature-settings:normal;font-variation-settings:normal;text-indent:0;text-align:start;text-decoration:none;text-decoration-line:none;text-decoration-style:solid;text-decoration-color:#000000;letter-spacing:normal;word-spacing:normal;text-transform:none;writing-mode:lr-tb;direction:ltr;text-orientation:mixed;dominant-baseline:auto;baseline-shift:baseline;text-anchor:start;white-space:normal;shape-padding:0;shape-margin:0;inline-size:0;clip-rule:nonzero;display:inline;overflow:visible;visibility:visible;isolation:auto;mix-blend-mode:normal;color-interpolation:sRGB;color-interpolation-filters:linearRGB;solid-color:#000000;solid-opacity:1;vector-effect:none;fill:#0c151a;fill-opacity:1;fill-rule:nonzero;stroke:none;stroke-width:0.15625;stroke-linecap:butt;stroke-linejoin:miter;stroke-miterlimit:4;stroke-dasharray:none;stroke-dashoffset:0;stroke-opacity:1.0;paint-order:markers stroke fill;color-rendering:auto;image-rendering:auto;shape-rendering:auto;text-rendering:auto;enable-background:accumulate;stop-color:#000000;stop-opacity:1;"
             d="m 6.2820049,5.6553293 c -0.072,0 -0.1393333,-0.012667 -0.202,-0.038 -0.061333,-0.025333 -0.1133333,-0.060667 -0.156,-0.106 l 0.116,-0.154 c 0.042667,0.038667 0.082,0.066667 0.118,0.084 0.037333,0.016 0.070667,0.024 0.1,0.024 0.022667,0 0.042667,-0.002 0.06,-0.006 0.018667,-0.00533 0.033333,-0.012667 0.044,-0.022 0.010667,-0.010667 0.016,-0.024 0.016,-0.04 0,-0.022667 -0.00933,-0.040667 -0.028,-0.054 -0.017333,-0.013333 -0.04,-0.024 -0.068,-0.032 -0.028,-0.00933 -0.058,-0.018667 -0.09,-0.028 -0.08,-0.025333 -0.138,-0.062 -0.174,-0.11 -0.034667,-0.049333 -0.052,-0.1026667 -0.052,-0.16 0,-0.044 0.011333,-0.088 0.034,-0.132 0.024,-0.045333 0.061333,-0.082667 0.112,-0.112 0.052,-0.030667 0.1186667,-0.046 0.2,-0.046 0.073333,0 0.1353333,0.00733 0.186,0.022 0.050667,0.014667 0.098667,0.038667 0.144,0.072 l -0.106,0.164 c -0.025333,-0.02 -0.054,-0.036667 -0.086,-0.05 -0.030667,-0.014667 -0.059333,-0.022667 -0.086,-0.024 -0.024,-0.00133 -0.044667,0.00133 -0.062,0.008 -0.016,0.00667 -0.028667,0.015333 -0.038,0.026 -0.00933,0.010667 -0.014,0.022 -0.014,0.034 -0.00133,0.025333 0.008,0.045333 0.028,0.06 0.021333,0.014667 0.048,0.026 0.08,0.034 0.032,0.008 0.063333,0.017333 0.094,0.028 0.042667,0.013333 0.079333,0.031333 0.11,0.054 0.030667,0.022667 0.054,0.05 0.07,0.082 0.017333,0.030667 0.026,0.068 0.026,0.112 0,0.053333 -0.014,0.104 -0.042,0.152 -0.026667,0.046667 -0.068,0.084667 -0.124,0.114 -0.054667,0.029333 -0.1246667,0.044 -0.21,0.044 z"
             id="path898" />
        </g>
      </g>
    </g>
  </g>
</svg>
